<svg xmlns="http://www.w3.org/2000/svg" aria-hidden="true" style="position:absolute;width:0;height:0;overflow:hidden">
<defs>
<symbol id="icon-menu-close" viewBox="0 0 32 32">
  <path fill="none" stroke="#fbfbfb" stroke-linecap="round" stroke-linejoin="round" stroke-width="2.353" d="M24 8 8 24M8 8l16 16" style="stroke:var(--color1, #fbfbfb)"/>
</symbol>
<symbol id="icon-menu-open" viewBox="0 0 32 32">
  <path stroke-linecap="round" stroke-linejoin="round" stroke-width="2.353" d="M4 11.333h24M4 20.667h24"/>
</symbol>
<symbol id="icon-favicon" viewBox="0 0 32 32">
<path fill="#3350e9" d="M16 2.909c7.23 0 13.091 5.861 13.091 13.091S23.23 29.091 16 29.091C8.77 29.091 2.909 23.23 2.909 16S8.77 2.909 16 2.909z" style="fill:var(--color2, #3350e9)"/>
<path fill="none" stroke="#3350e9" stroke-width="2.909" d="M16 1.455c8.033 0 14.545 6.512 14.545 14.545S24.033 30.545 16 30.545C7.967 30.545 1.455 24.033 1.455 16S7.967 1.455 16 1.455z" style="stroke:var(--color2, #3350e9)"/>
<path fill="#fbfbfb" d="m17.993 17.571 1.236-4.48h1.993l-2.313 7.273H17.12l-1.338-4.407-1.338 4.407h-1.789l-2.313-7.273h1.993l1.236 4.465 1.324-4.465h1.775l1.324 4.48z" style="fill:var(--color1, #fbfbfb)"/></symbol>
<symbol id="icon-youtube" viewBox="0 0 34 32">
<path d="M25.04 6c-1.36-.08-4.16-.16-8.4-.16h-.56c-4.08 0-6.8.08-8.16.24-1.84.16-3.12.64-3.84 1.28-.64.56-1.12 1.6-1.28 2.96-.08.88-.16 2.72-.16 5.52v.4c0 2.64.08 4.48.24 5.36.24 1.28.64 2.24 1.44 2.8.8.64 2.16 1.04 4.08 1.2 1.36.08 4.16.16 8.4.16h.56c4.08 0 6.8-.08 8.16-.24 1.84-.16 3.12-.64 3.84-1.28.64-.56 1.12-1.6 1.28-2.96.08-.88.16-2.72.16-5.52v-.4c0-2.64-.08-4.48-.24-5.36-.24-1.28-.64-2.24-1.44-2.8-.8-.64-2.16-1.04-4.08-1.2zm-3.12 9.84-8.8 5.28V10.56l8.8 5.28z"/></symbol>
<symbol id="icon-instagram" viewBox="0 0 34 32">
<path d="M29.518 10.756a9.264 9.264 0 0 0-.596-3.145 6.547 6.547 0 0 0-3.743-3.737 9.42 9.42 0 0 0-3.108-.596c-1.368-.061-1.801-.078-5.273-.078s-3.916 0-5.274.078a9.418 9.418 0 0 0-3.106.596 6.541 6.541 0 0 0-3.743 3.737 9.288 9.288 0 0 0-.596 3.101c-.061 1.367-.08 1.8-.08 5.265s0 3.909.08 5.265a9.335 9.335 0 0 0 .596 3.104 6.55 6.55 0 0 0 3.744 3.736c.989.386 2.04.604 3.106.639 1.369.061 1.803.08 5.274.08s3.916 0 5.274-.08a9.362 9.362 0 0 0 3.108-.595 6.555 6.555 0 0 0 3.743-3.737 9.35 9.35 0 0 0 .596-3.104c.061-1.365.08-1.798.08-5.265-.003-3.466-.003-3.906-.082-5.264zM16.79 22.531c-3.631 0-6.572-2.936-6.572-6.561s2.941-6.561 6.572-6.561c3.628 0 6.572 2.936 6.572 6.561s-2.944 6.561-6.572 6.561zm6.834-11.835a1.53 1.53 0 1 1 0-3.06 1.53 1.53 0 1 1 0 3.06z"/>
<path d="M16.792 19.976a4.004 4.004 0 1 0 0-8.009 4.004 4.004 0 0 0 0 8.009z"/></symbol>
<symbol id="icon-facebook" viewBox="0 0 34 32"><path d="M20.32 4.64h.96v3.6h-1.2c-.48 0-.96 0-1.2.24s-.24.48-.24 1.04v1.28h2.64v3.04h-2.64v13.2h-4.08V13.76H12.4v-3.04h2.16V9.68c0-1.76.24-3.04.72-3.6.72-1.04 2.16-1.52 4.32-1.52.24.08.48.08.72.08z"/></symbol>
</defs></svg>